<svg id="Capa_1" data-name="Capa 1" xmlns="http://www.w3.org/2000/svg" xmlns:xlink="http://www.w3.org/1999/xlink" viewBox="0 0 178.33 177.28"><defs><style>.cls-1{fill:url(#Degradado_sin_nombre_50);}.cls-2{fill:#efefef;stroke:#efefef;stroke-miterlimit:10;stroke-width:0.25px;}</style><linearGradient id="Degradado_sin_nombre_50" x1="126.09" y1="60.22" x2="56.59" y2="138.72" gradientUnits="userSpaceOnUse"><stop offset="0.01" stop-color="#b3b3b3"/><stop offset="1" stop-color="#4d4d4d"/></linearGradient></defs><title>key</title><path class="cls-1" d="M64.29,83.12l37.26,37.26-11.3,11.3a3.27,3.27,0,0,0,0,4.63l12.33,12.33a3.28,3.28,0,0,0,4.64,0l11.29-11.3,8,8-14,14a3.27,3.27,0,0,0,0,4.63l12.33,12.34a3.28,3.28,0,0,0,4.64,0l14-14,11.16,11.16s5.05,5.05,15.34-5.24,5.24-15.34,5.24-15.34L84.87,62.54c11.55-18.06,11.93-38.73-.41-51.08C69.4-3.59,42,.26,22,20.24S-1.84,67.65,13.21,82.7C25.56,95.05,46.23,94.67,64.29,83.12Zm-2-22.59c-11.84,11.85-28.52,16-35.68,8.78s-3.07-23.84,8.77-35.68S63.9,17.69,71.06,24.85,74.13,48.69,62.29,60.53Z"/><path class="cls-2" d="M159.63,174.64c2.5-.37,6-1.95,10.38-6.38,10.29-10.29,5.24-15.34,5.24-15.34L84.87,62.54c11.55-18.06,11.93-38.73-.41-51.08C74.65,1.65,59.58-.12,44.75,5.35,57.9,2.52,69.6,1.41,81.18,11.21c10.62,9,12,22,9.75,32.5a59.32,59.32,0,0,1-7.2,17.84,63.75,63.75,0,0,1-7.47,9.16s5.83-3.58,7.83-6.29c11.15,11,88.79,87.86,90.18,90,1.5,2.34-1.59,9.09-5.67,13.17C164.83,171.38,161.94,173.73,159.63,174.64Z"/></svg>