<svg id="Capa_1" data-name="Capa 1" xmlns="http://www.w3.org/2000/svg" viewBox="0 0 197.33 129.78"><defs><style>.cls-1{fill:#4f4f4f;}</style></defs><title>keyhole</title><path d="M192.79,12.9l-6.1-5.72-18-4L142.69,7l-35,15L88.53,35.68,80,48.84l-1.5,6.67L79.29,58l1,1.87.28.29.15.27a14.54,14.54,0,0,0,1.82,1.43L3.42,126.69l57,1.56L124.7,63c20.54-5,42.41-15.53,56.13-28,9.1-8.26,13-15.92,12.1-21.83Z"/><path class="cls-1" d="M192.93,13.14c-1.06-6.86-8.62-11.38-22.17-11.75C145.53.7,109.14,14.61,89.49,32.46,76.8,44,74.2,54.32,80.71,60.39c-1.33-2.59-1.56-6.49,2-12.13C89,38.18,95,33.27,110.5,23.62,120.69,17.26,136.18,10.71,152.69,7,170.11,3.1,185.49,6.07,192.93,13.14Z"/><polygon class="cls-1" points="12.03 126.93 85.29 65.11 82.54 61.83 3.41 126.69 12.03 126.93"/></svg>